<?xml version="1.0" encoding="utf-8"?>
<!-- Generator: Adobe Illustrator 18.1.1, SVG Export Plug-In . SVG Version: 6.00 Build 0)  -->
<!DOCTYPE svg PUBLIC "-//W3C//DTD SVG 1.1//EN" "http://www.w3.org/Graphics/SVG/1.1/DTD/svg11.dtd">
<svg version="1.1" id="Layer_1" xmlns="http://www.w3.org/2000/svg" xmlns:xlink="http://www.w3.org/1999/xlink" x="0px" y="0px"
	 viewBox="0 0 40 40" enable-background="new 0 0 40 40" xml:space="preserve">
<path fill="#2B2F31" d="M29.4,0c0,2.1-0.7,4-1.9,5.6c0.7,3.6,1.4,11.6,1.4,29.8c0,0.6-0.4,1-1,1s-1-0.4-1-1
	c0-16.4-0.6-24.3-1.1-28.1c-1.6,1.3-3.6,2-5.8,2s-4.2-0.8-5.8-2c-0.5,3.8-1.1,11.7-1.1,28.1c0,0.6-0.4,1-1,1c-0.6,0-1-0.4-1-1
	c0-18.2,0.7-26.3,1.4-29.8C11.3,4,10.6,2.1,10.6,0h-2c0,2.2,0.6,4.2,1.8,6c-0.8,5.3-1.3,15.4-1.3,29.4c0,1.7,1.3,3,3,3s3-1.3,3-3
	c0-12.8,0.4-20.4,0.8-24.8c1.3,0.5,2.7,0.8,4.1,0.8s2.8-0.3,4.1-0.8c0.4,4.4,0.8,12,0.8,24.8c0,1.7,1.3,3,3,3s3-1.3,3-3
	c0-13.9-0.4-24.1-1.3-29.4c1.1-1.8,1.8-3.9,1.8-6H29.4z"/>
</svg>
