<?xml version="1.0" encoding="utf-8"?>
<!-- Generator: Adobe Illustrator 18.1.1, SVG Export Plug-In . SVG Version: 6.00 Build 0)  -->
<!DOCTYPE svg PUBLIC "-//W3C//DTD SVG 1.1//EN" "http://www.w3.org/Graphics/SVG/1.1/DTD/svg11.dtd">
<svg version="1.1" id="Layer_1" xmlns="http://www.w3.org/2000/svg" xmlns:xlink="http://www.w3.org/1999/xlink" x="0px" y="0px"
	 viewBox="0 0 40 40" enable-background="new 0 0 40 40" xml:space="preserve">
<path fill="#2B2F31" d="M37.7,20.3c0,0-0.3-0.3-0.8-0.6c-0.9-0.6-1.9-0.9-2.9-0.9c-1.3,0.1-2.6,0.9-3.4,1.9l0,0l-1.9,2.4
	c-4.1-3.8-9.4-5.8-15-5.8H0v2.5h13.8c5.3,0,10.3,2.1,14,5.9l0.8,0.8l0.9-0.6c1.4-1,2.5-2.3,3.4-3.8l0,0c0.6-0.9,1.8-1,2.6-0.4
	c0.8,0.6,0.9,1.6,0.5,2.4c0,0.1-0.1,0.1-0.1,0.3l0.1,0.1c0,0,0,0,0,0l-0.1-0.1c-1.1,1.8-2.5,3.3-4.1,4.5l-0.9,0.6l0.5,1
	c1.5,2.9,2.4,5.8,2.4,9.5h0.1h2.4h0.1c0-3.8-0.9-6.8-2.3-9.8c1.6-1.3,3-2.9,4-4.6c0,0,0,0,0,0c0.3-0.5,0.5-1.1,0.6-1.7
	C38.9,22.6,38.6,21.3,37.7,20.3L37.7,20.3z"/>
</svg>
